# xmcd
#
# Track frame offsets: 
#        150
#        23264
#        40449
#        54232
#        72904
#        89983
#        106343
#        129526
#        148388
#        165288
#        177557
#        195437
#        217374
#        233806
#        248486
#        266966
#        286570
#        306384
#        327566
#
# Disc length: 4597 seconds
#
# Revision: 0
# Processed by: cddbd v1.5.2PL0 Copyright (c) Steve Scherf et al.
# Submitted via: ExactAudioCopy v0.95b4
#
DISCID=2011f313
DTITLE=Любэ - Лучшие Песни (Часть 1)
DYEAR=2008
DGENRE=Pop
TTITLE0=Комбат
TTITLE1=Там, за туманами
TTITLE2=Берёзы
TTITLE3=Орлята-1
TTITLE4=Главное, что есть ты у меня
TTITLE5=Ты неси меня, река (краса)
TTITLE6=Солдат
TTITLE7=Давай за...
TTITLE8=Шагом марш
TTITLE9=Позови меня тихо по имени
TTITLE10=Скоро дембель
TTITLE11=Дорога
TTITLE12=Конь
TTITLE13=Самоволочка
TTITLE14=Младшая сестрёнка
TTITLE15=Годы
TTITLE16=По высокой траве
TTITLE17=Скворцы
TTITLE18=После войны
EXTD=
EXTT0=
EXTT1=
EXTT2=
EXTT3=
EXTT4=
EXTT5=
EXTT6=
EXTT7=
EXTT8=
EXTT9=
EXTT10=
EXTT11=
EXTT12=
EXTT13=
EXTT14=
EXTT15=
EXTT16=
EXTT17=
EXTT18=
PLAYORDER=
